<mxfile host="app.diagrams.net" agent="Mozilla/5.0 (Windows NT 10.0; Win64; x64) AppleWebKit/537.36 (KHTML, like Gecko) Chrome/140.0.0.0 Safari/537.36" version="28.2.5">
  <diagram name="Страница — 1" id="Ak5K-JNuDrSpt37pMSH4">
    <mxGraphModel dx="1737" dy="1007" grid="1" gridSize="10" guides="1" tooltips="1" connect="1" arrows="1" fold="1" page="1" pageScale="1" pageWidth="827" pageHeight="1169" math="0" shadow="0">
      <root>
        <mxCell id="0" />
        <mxCell id="1" parent="0" />
        <mxCell id="ENIbOzAQgSpgvj-lkIke-1" value="" style="endArrow=none;html=1;rounded=0;strokeWidth=3;" edge="1" parent="1">
          <mxGeometry width="50" height="50" relative="1" as="geometry">
            <mxPoint x="40" y="400" as="sourcePoint" />
            <mxPoint x="40" y="400" as="targetPoint" />
            <Array as="points">
              <mxPoint x="40" y="200" />
              <mxPoint x="880" y="200" />
              <mxPoint x="880" y="400" />
            </Array>
          </mxGeometry>
        </mxCell>
        <mxCell id="ENIbOzAQgSpgvj-lkIke-3" value="&lt;font style=&quot;font-size: 20px;&quot;&gt;Предделитель&lt;/font&gt;" style="rounded=0;whiteSpace=wrap;html=1;strokeWidth=2;" vertex="1" parent="1">
          <mxGeometry x="120" y="280" width="160" height="80" as="geometry" />
        </mxCell>
        <mxCell id="ENIbOzAQgSpgvj-lkIke-4" value="&lt;font style=&quot;font-size: 20px;&quot;&gt;Счетчик&lt;/font&gt;" style="rounded=0;whiteSpace=wrap;html=1;strokeWidth=2;" vertex="1" parent="1">
          <mxGeometry x="360" y="280" width="160" height="80" as="geometry" />
        </mxCell>
        <mxCell id="ENIbOzAQgSpgvj-lkIke-5" value="" style="endArrow=none;html=1;rounded=0;entryX=0;entryY=0.5;entryDx=0;entryDy=0;strokeWidth=2;" edge="1" parent="1" target="ENIbOzAQgSpgvj-lkIke-4">
          <mxGeometry width="50" height="50" relative="1" as="geometry">
            <mxPoint x="280" y="320" as="sourcePoint" />
            <mxPoint x="330" y="270" as="targetPoint" />
          </mxGeometry>
        </mxCell>
        <mxCell id="ENIbOzAQgSpgvj-lkIke-7" value="" style="endArrow=classic;html=1;rounded=0;strokeWidth=2;" edge="1" parent="1">
          <mxGeometry width="50" height="50" relative="1" as="geometry">
            <mxPoint x="80" y="240" as="sourcePoint" />
            <mxPoint x="120" y="320" as="targetPoint" />
            <Array as="points">
              <mxPoint x="80" y="320" />
            </Array>
          </mxGeometry>
        </mxCell>
        <mxCell id="ENIbOzAQgSpgvj-lkIke-8" value="&lt;font style=&quot;font-size: 20px;&quot;&gt;CLK&lt;/font&gt;" style="text;html=1;align=center;verticalAlign=middle;whiteSpace=wrap;rounded=0;" vertex="1" parent="1">
          <mxGeometry x="50" y="210" width="60" height="30" as="geometry" />
        </mxCell>
        <mxCell id="ENIbOzAQgSpgvj-lkIke-9" value="&lt;font style=&quot;font-size: 20px;&quot;&gt;Контроллер ведущего режима&lt;/font&gt;" style="rounded=0;whiteSpace=wrap;html=1;strokeWidth=2;" vertex="1" parent="1">
          <mxGeometry x="600" y="280" width="160" height="80" as="geometry" />
        </mxCell>
        <mxCell id="ENIbOzAQgSpgvj-lkIke-10" value="&lt;font style=&quot;font-size: 20px;&quot;&gt;TIM1&lt;/font&gt;" style="text;html=1;align=center;verticalAlign=middle;whiteSpace=wrap;rounded=0;" vertex="1" parent="1">
          <mxGeometry x="390" y="210" width="60" height="30" as="geometry" />
        </mxCell>
        <mxCell id="ENIbOzAQgSpgvj-lkIke-11" value="" style="endArrow=none;html=1;rounded=0;strokeWidth=3;" edge="1" parent="1">
          <mxGeometry width="50" height="50" relative="1" as="geometry">
            <mxPoint x="960" y="400" as="sourcePoint" />
            <mxPoint x="960" y="400" as="targetPoint" />
            <Array as="points">
              <mxPoint x="960" y="200" />
              <mxPoint x="1840" y="200" />
              <mxPoint x="1840" y="400" />
            </Array>
          </mxGeometry>
        </mxCell>
        <mxCell id="ENIbOzAQgSpgvj-lkIke-12" value="&lt;font style=&quot;font-size: 20px;&quot;&gt;Предделитель&lt;/font&gt;" style="rounded=0;whiteSpace=wrap;html=1;strokeWidth=2;" vertex="1" parent="1">
          <mxGeometry x="1400" y="280" width="160" height="80" as="geometry" />
        </mxCell>
        <mxCell id="ENIbOzAQgSpgvj-lkIke-13" value="&lt;font style=&quot;font-size: 20px;&quot;&gt;Счетчик&lt;/font&gt;" style="rounded=0;whiteSpace=wrap;html=1;strokeWidth=2;" vertex="1" parent="1">
          <mxGeometry x="1640" y="280" width="160" height="80" as="geometry" />
        </mxCell>
        <mxCell id="ENIbOzAQgSpgvj-lkIke-14" value="" style="endArrow=none;html=1;rounded=0;entryX=0;entryY=0.5;entryDx=0;entryDy=0;strokeWidth=2;" edge="1" parent="1" target="ENIbOzAQgSpgvj-lkIke-13">
          <mxGeometry width="50" height="50" relative="1" as="geometry">
            <mxPoint x="1560" y="320" as="sourcePoint" />
            <mxPoint x="1610" y="270" as="targetPoint" />
          </mxGeometry>
        </mxCell>
        <mxCell id="ENIbOzAQgSpgvj-lkIke-17" value="&lt;font style=&quot;font-size: 20px;&quot;&gt;Контроллер ведомого режима&lt;/font&gt;" style="rounded=0;whiteSpace=wrap;html=1;strokeWidth=2;" vertex="1" parent="1">
          <mxGeometry x="1161" y="280" width="160" height="80" as="geometry" />
        </mxCell>
        <mxCell id="ENIbOzAQgSpgvj-lkIke-18" value="&lt;font style=&quot;font-size: 20px;&quot;&gt;TIM2&lt;/font&gt;" style="text;html=1;align=center;verticalAlign=middle;whiteSpace=wrap;rounded=0;" vertex="1" parent="1">
          <mxGeometry x="1310" y="210" width="60" height="30" as="geometry" />
        </mxCell>
        <mxCell id="ENIbOzAQgSpgvj-lkIke-19" value="" style="endArrow=classic;html=1;rounded=0;strokeWidth=2;" edge="1" parent="1">
          <mxGeometry width="50" height="50" relative="1" as="geometry">
            <mxPoint x="760" y="320" as="sourcePoint" />
            <mxPoint x="1030" y="320" as="targetPoint" />
          </mxGeometry>
        </mxCell>
        <mxCell id="ENIbOzAQgSpgvj-lkIke-20" value="&lt;font style=&quot;font-size: 20px;&quot;&gt;TRGO&lt;/font&gt;" style="text;html=1;align=center;verticalAlign=middle;whiteSpace=wrap;rounded=0;" vertex="1" parent="1">
          <mxGeometry x="790" y="290" width="60" height="30" as="geometry" />
        </mxCell>
        <mxCell id="ENIbOzAQgSpgvj-lkIke-21" value="" style="verticalLabelPosition=middle;verticalAlign=middle;html=1;shape=trapezoid;perimeter=trapezoidPerimeter;whiteSpace=wrap;size=0.23;arcSize=10;flipV=1;labelPosition=center;align=center;rotation=-90;strokeWidth=2;" vertex="1" parent="1">
          <mxGeometry x="980" y="297.5" width="150" height="45" as="geometry" />
        </mxCell>
        <mxCell id="ENIbOzAQgSpgvj-lkIke-22" value="" style="endArrow=none;html=1;rounded=0;strokeWidth=2;" edge="1" parent="1">
          <mxGeometry width="50" height="50" relative="1" as="geometry">
            <mxPoint x="1080" y="320" as="sourcePoint" />
            <mxPoint x="1160" y="320" as="targetPoint" />
          </mxGeometry>
        </mxCell>
        <mxCell id="ENIbOzAQgSpgvj-lkIke-23" value="&lt;font style=&quot;font-size: 20px;&quot;&gt;ITR0&lt;/font&gt;" style="text;html=1;align=center;verticalAlign=middle;whiteSpace=wrap;rounded=0;" vertex="1" parent="1">
          <mxGeometry x="960" y="295" width="60" height="20" as="geometry" />
        </mxCell>
        <mxCell id="ENIbOzAQgSpgvj-lkIke-24" value="" style="endArrow=none;html=1;rounded=0;entryX=0;entryY=0.5;entryDx=0;entryDy=0;strokeWidth=2;" edge="1" parent="1">
          <mxGeometry width="50" height="50" relative="1" as="geometry">
            <mxPoint x="520" y="318.82" as="sourcePoint" />
            <mxPoint x="600" y="318.82" as="targetPoint" />
          </mxGeometry>
        </mxCell>
        <mxCell id="ENIbOzAQgSpgvj-lkIke-25" value="&lt;font style=&quot;font-size: 20px;&quot;&gt;UEV&lt;/font&gt;" style="text;html=1;align=center;verticalAlign=middle;whiteSpace=wrap;rounded=0;" vertex="1" parent="1">
          <mxGeometry x="530" y="285" width="60" height="30" as="geometry" />
        </mxCell>
        <mxCell id="ENIbOzAQgSpgvj-lkIke-26" value="" style="endArrow=none;html=1;rounded=0;strokeWidth=2;" edge="1" parent="1">
          <mxGeometry width="50" height="50" relative="1" as="geometry">
            <mxPoint x="1321" y="318.82" as="sourcePoint" />
            <mxPoint x="1401" y="318.82" as="targetPoint" />
          </mxGeometry>
        </mxCell>
        <mxCell id="ENIbOzAQgSpgvj-lkIke-27" value="" style="endArrow=none;html=1;rounded=0;strokeWidth=2;" edge="1" parent="1" target="ENIbOzAQgSpgvj-lkIke-28">
          <mxGeometry width="50" height="50" relative="1" as="geometry">
            <mxPoint x="680" y="280" as="sourcePoint" />
            <mxPoint x="680" y="160" as="targetPoint" />
          </mxGeometry>
        </mxCell>
        <mxCell id="ENIbOzAQgSpgvj-lkIke-28" value="&lt;font style=&quot;font-size: 20px;&quot;&gt;MMS&lt;/font&gt;" style="text;html=1;align=center;verticalAlign=middle;whiteSpace=wrap;rounded=0;" vertex="1" parent="1">
          <mxGeometry x="650" y="145" width="60" height="30" as="geometry" />
        </mxCell>
        <mxCell id="ENIbOzAQgSpgvj-lkIke-29" value="" style="endArrow=none;html=1;rounded=0;" edge="1" parent="1" target="ENIbOzAQgSpgvj-lkIke-30">
          <mxGeometry width="50" height="50" relative="1" as="geometry">
            <mxPoint x="1241" y="280" as="sourcePoint" />
            <mxPoint x="1241" y="160" as="targetPoint" />
          </mxGeometry>
        </mxCell>
        <mxCell id="ENIbOzAQgSpgvj-lkIke-30" value="&lt;font style=&quot;font-size: 20px;&quot;&gt;SMS&lt;/font&gt;" style="text;html=1;align=center;verticalAlign=middle;whiteSpace=wrap;rounded=0;" vertex="1" parent="1">
          <mxGeometry x="1211" y="145" width="60" height="30" as="geometry" />
        </mxCell>
      </root>
    </mxGraphModel>
  </diagram>
</mxfile>
